<?xml version="1.0" encoding="UTF-8"?>
<svg width="600" height="300" version="1.1" xmlns="http://www.w3.org/2000/svg">
 <path d="m208.21 11.276c-1.2461-0.01713-2.5572 0.18502-3.8356 0.55993-3.6874 1.0814-7.1131 3.6131-12.301 9.8991-19.05 0.21779-39.796 1.3253-55.304 3.503-21.812 3.0626-33.248 8.2329-39.201 11.981-5.9524 3.7482-6.4209 6.0753-6.4629 7.9812-0.04195 1.9063 0.34322 3.3916 1.2379 3.9273 0.89471 0.53571 2.2988 0.12198 3.3508-0.47018 1.052-0.59216 1.7509-1.3617 2.3109-2.2719 0.55998-0.91014 0.97957-1.9593 1.3998-2.7997 0.42024-0.84037 0.84042-1.4702 5.4645-2.8006 4.624-1.3304 13.452-3.3617 26.875-5.1923 13.388-1.826 31.346-3.4517 52.377-3.3127-5.3721 7.5282-11.885 17.203-19.487 28.524-4.0997 6.1052-8.583 12.775-13.002 19.345-0.74088 0.46045-1.4809 0.92228-2.2222 1.3823-7.9267 4.9188-15.767 9.8141-21.568 13.562 0.26715-0.82659 0.21721-1.528 0.0135-2.1792-0.37109-1.1873-1.2129-2.2263-1.9305-3.0182-0.71761-0.79182-1.3113-1.3368-1.9051-1.7822-0.59385-0.44538-1.1876-0.79152-2.1031 0-0.91548 0.79152-2.1531 2.722-3.7371 5.0239-1.584 2.3018-3.5131 4.9733-5.2207 7.8938-0.55469 0.94866-1.0765 1.9243-1.5188 2.9089-7.9862 2.2271-11.736 3.678-14.986 4.7379-3.4151 1.1137-6.335 1.806-9.1813 2.1773-2.8461 0.37125-5.6168 0.42022-8.6729 1.791-3.0561 1.3708-6.347 4.024-7.8323 6.4244-1.4851 2.4006-1.1385 4.5279-0.09854 5.2207 1.0398 0.69289 2.7718-0.0488 5.2707-1.4837 2.4987-1.435 5.7661-3.5646 8.598-5.378 2.8319-1.8132 5.1858-3.2842 8.1795-4.5955 2.9938-1.3113 6.6077-2.4497 12.323-4.058 1.623-0.45671 3.437-0.95574 5.3241-1.4691-0.14754 0.93052-0.15133 1.8534 0.0459 2.7558 0.64349 2.9453 3.4148 5.6672 6.3844 6.9788 1.4485 0.63969 2.9446 0.94091 4.5877 0.92672-4.3698 3.5633-9.7158 8.4532-16.615 15.439-14.946 15.135-37.118 40.03-50.479 57.671-4.0409 5.3356-7.2655 9.9974-9.8731 14.099-9.454 2.6917-17.292 5.429-22.8 7.9267-12.809 5.8091-13.072 10.323-9.7073 16.09 3.3651 5.7671 10.357 12.785 27.709 18.158 17.353 5.3741 45.065 9.1024 73.983 9.2153 28.919 0.11307 59.045-3.3893 94.77-7.8264 19.507-2.4225 40.694-5.1298 63-8.6409-4.3475 6.2226-7.3304 10.899-9.1704 14.45-2.8207 5.4435-3.0193 8.3143-2.6728 10.096 0.34642 1.7821 1.2371 2.4744 2.6728 2.3753 1.4357-0.099 3.4157-0.98991 6.1377-4.3555 2.722-3.3656 6.1862-9.2048 10.245-16.183 1.4752-2.5365 3.1089-5.3401 4.8881-8.3543 14.802-2.491 30.034-5.3596 45.561-8.7688 6.6646-1.4633 13.38-3.0329 20.08-4.658 23.954 5.3426 47.446 10.908 67.9 15.893 35.413 8.6315 61.772 15.503 83.672 21.866 21.9 6.363 39.341 12.216 50.194 15.487 10.854 3.2701 15.122 3.9574 22.117 6.2002 6.9948 2.2428 16.721 6.0413 17.072 3.9848 0.35136-2.0564-8.6669-9.964-15.61-14.789-6.9423-4.8254-11.801-6.5628-51.228-16.836-34.624-9.022-95.894-24.623-152.48-37.266 29.315-7.6755 56.757-15.867 76.051-21.512 28.318-8.2858 39.097-11.085 45.33-13.486 6.2326-2.4011 7.9192-4.4037 7.9208-6.0478 0-1.6443-1.6819-2.9308-3.8346-3.2279-1.4476-0.19975-3.3239 0.11336-13.728 3.0376-2.0288 0.29925-4.0912 0.60603-5.8206 0.47604-3.2919-0.24738-5.3701-2.0786-6.2606-3.8112-0.89077-1.7325-0.5939-3.3655 0.61846-5.2707 1.2124-1.905 3.3414-4.0835 5.6917-6.3844 2.3506-2.301 4.9242-4.7272 6.359-6.6821 1.4351-1.9548 1.7325-3.4393 1.1638-4.4287-0.56882-0.98941-2.0048-1.485-2.7226-1.7325-0.71776-0.24751-3.9842 2.8704-5.1478 4.3555-1.1634 1.4852-3.4881 4.4538-6.5817 7.5472-3.0935 3.0936-6.9538 6.31-10.592 8.8837-3.6378 2.5738-7.0522 4.5035-9.8486 5.5923-2.7965 1.089-4.9733 1.3368-6.2111 0.19803-1.2378-1.1388-1.5345-3.6628-1.2623-6.3105 0.27225-2.6476 1.1132-5.4195 2.9937-7.7454 1.8806-2.3258 4.8016-4.2068 7.1521-5.8645 2.3506-1.6579 4.133-3.0931 6.1867-4.1321 2.0535-1.039 4.3799-1.6834 5.5429-2.5743 1.163-0.89086 1.1633-2.0287 0.91599-2.746-0.24728-0.71726-0.74323-1.0146-1.2135-1.4105-0.47028-0.396-0.91519-0.89126-2.2758-0.84182-1.3606 0.0495-3.6376 0.64329-5.3701 1.7569-1.7324 1.1136-2.9203 2.7461-5.1972 4.7262-2.2771 1.9802-5.6408 4.3057-8.9571 7.5227-1.4144 1.3721-2.8136 2.9095-4.1253 4.496-0.0195 3e-3 -0.037 5e-3 -0.0566 8e-3 -1.9057 0.29701-3.9348 0.64374-5.6178 1.6583-1.683 1.0146-3.0178 2.6963-6.6566 5.2462-3.6389 2.5499-9.5759 5.9629-12.669 7.5716-3.0935 1.6086-3.3412 1.4112-2.8709-1.4603 0.47038-2.8715 1.6582-8.4137 3.6873-13.462 2.0292-5.0479 4.8995-9.6019 7.8938-13.313 2.9941-3.7116 6.1132-6.5822 8.3647-8.4382 2.2518-1.8558 3.638-2.6969 4.2316-3.5381 0.59359-0.84117 0.39496-1.6835 0.19703-2.4504s-0.39567-1.4597-1.0388-2.0534c-0.64324-0.59369-1.7321-1.0888-2.7714-1.0643-1.0392 0.0245-2.0294 0.56902-3.4405 2.0544s-3.2409 3.9094-6.0873 6.9288c-2.8462 3.0194-6.7056 6.6312-9.9725 9.8731-2.5122 2.4931-4.6705 4.7724-6.6267 7.5581-0.26365-0.48686-0.56842-0.83513-0.92088-1.0496-0.56867-0.34613-1.2616-0.34664-3.2659 0.76675-2.0043 1.1134-5.3206 3.3405-9.5519 5.4684-4.2313 2.128-9.3796 4.1577-15.22 5.2217-3.1646 0.57666-6.5253 0.8618-9.6953 0.92283 0.79677-0.70477 1.656-1.5144 2.6182-2.4563 3.5133-3.4391 8.3148-8.4886 12.843-13.883 4.5282-5.3945 8.7853-11.136 11.21-16.035 2.4249-4.8994 3.0184-8.9586 2.8699-12.077-0.14858-3.1177-1.0396-5.2952-2.4992-6.285-1.4596-0.98971-3.4888-0.79228-6.3844 0.42043-2.8956 1.2127-6.6561 3.44-12.571 7.5482-5.915 4.1082-13.981 10.095-21.232 16.059-6.1662 5.0719-11.728 10.116-15.951 14.269 2.6542-3.6913 5.1238-6.9104 7.7454-9.9605 5.9789-6.9568 12.806-13.191 16.952-16.891 4.1459-3.7004 5.6063-4.8627 6.1502-5.7162 0.54425-0.8537 0.17341-1.3985-0.38332-2.1285-0.55679-0.73-1.2994-1.6462-2.3753-1.7451-1.076-0.0989-2.4873 0.61936-3.9224 1.8193-1.4351 1.1999-2.8954 2.8833-4.776 5.1348-1.8806 2.2517-4.1829 5.0734-6.1991 6.7435-2.0163 1.67-3.7485 2.1893-6.2351 2.6348-2.4868 0.44544-5.7297 0.81745-8.0056 1.1267-2.2759 0.30922-3.5878 0.55593-4.8248 0.97647-1.0239 0.34809-1.9179 0.78328-2.5528 1.1023-0.10549-0.15105-0.21167-0.29136-0.318-0.40873-0.71731-0.79172-1.4106-0.79177-2.1285-0.5443-0.71785 0.24748-1.4593 0.74153-1.7812 1.3852-0.32194 0.64369-0.2235 1.4349 0.17266 2.1529 0.39611 0.71806 1.0892 1.361 1.3862 2.3753 0.29692 1.0143 0.19833 2.4005-0.27025 5.3975-0.46853 2.9968-1.306 7.6001-4.3994 11.907-3.0934 4.3064-8.4417 8.3113-13.027 10.892-4.5847 2.581-8.4037 3.7376-10.425 2.7167-2.0214-1.0209-2.2418-4.2187-1.0418-8.5031 1.2-4.2846 3.8197-9.6558 6.7211-13.788 2.9013-4.1325 6.0833-7.0252 8.5755-8.9606 2.4921-1.9356 4.2942-2.9136 5.2197-3.7986 0.92553-0.88492 0.97512-1.6772 0.99984-2.0729 0.0245-0.39568 0.0255-0.39553-0.24677-0.56872-0.27215-0.1731-0.8172-0.51958-1.5842-0.47019-0.767 0.0495-1.7559 0.49481-4.7525 2.4221-2.9967 1.9273-7.9942 5.3321-13.314 10.487-4.2936 4.1606-8.7908 9.458-11.166 14.341-0.04 2e-3 -0.0755 2e-3 -0.11707 6e-3 -2.0295 0.19273-6.1242 2.0834-9.519 3.9556-3.3946 1.8722-6.0888 3.7268-8.2758 4.4268-2.1871 0.69998-3.8667 0.24501-5.0919-0.59504-1.2252-0.84007-1.9952-2.0641-1.4701-4.7419 0.52522-2.6778 2.3445-6.807 5.5993-13.404 3.2548-6.5972 7.9432-15.658 10.218-21.066 2.2751-5.408 2.1349-7.1576 1.7324-8.3473-0.4024-1.1896-1.067-1.8205-2.3089-1.6281-1.242 0.19241-3.0626 1.2074-7.5492 4.9223-4.4867 3.7149-11.641 10.131-19.573 17.925-7.9322 7.7934-16.644 16.966-20.603 20.331-3.9595 3.3654-3.1668 0.92417-0.96379-3.2415 2.203-4.1657 5.8151-10.055 11.829-18.915 3.8432-5.6622 8.7583-12.652 14.388-20.546 13.879-11.158 30.907-26.682 42.85-38.892 13.264-13.561 20.269-23.05 24.882-29.837 4.6139-6.787 6.8904-10.945 6.8409-12.924-0.0495-1.9794-2.4248-1.781-7.9677 1.0398-5.5429 2.8208-14.254 8.2644-26.479 20.241-12.224 11.977-27.964 30.487-39.816 45.953-5.6218 7.3354-10.35 13.97-14.57 20.134-15.107 10.334-33.039 20.973-46.082 28.69-14.302 8.4626-22.714 13.411-27.021 14.203-4.3068 0.79192-4.514-2.7204-3.1733-9.8476 1.3408-7.1271 4.2112-18.163 11.586-32.417 7.3748-14.254 19.251-31.724 33.877-48.452 14.625-16.728 31.995-32.712 46.151-41.176 1.3597-0.81295 2.6887-1.5554 3.9878-2.2339 1.3798-0.26054 3.0107-1.0734 4.4355-2.1207 10.094-4.3832 18.001-4.6981 23.054-3.3664 6.3839 1.6826 8.2149 5.9879 6.7795 12.694-1.435 6.7061-6.1362 15.812-12.57 23.149-6.4339 7.3374-14.6 12.905-20.218 15.664-5.6173 2.7594-8.6859 2.7097-10.653 2.3509-1.9676-0.35881-2.8329-1.0269-3.8971-2.1158-1.0641-1.0889-2.326-2.5982-3.2786-2.4748-0.9526 0.12341-1.5967 1.881-1.3618 3.7 0.23494 1.819 1.3485 3.6989 4.2444 4.6394 2.8958 0.94051 7.5721 0.94111 13.276-1.3852 5.7042-2.3263 12.434-6.9778 18.571-12.521 6.1372-5.5434 11.68-11.977 15.491-17.817 3.8111-5.8405 5.8895-11.085 7.1271-15.837 1.2373-4.7515 1.6332-9.008-2.5734-11.779-4.2066-2.7711-13.016-4.0586-22.914-1.3862-2.5363 0.68479-5.1453 1.633-7.8263 2.7928 0.90435-2.2606-0.71431-4.2618-8.2389-6.367-2.7525-0.77005-6.315-1.5531-10.756-2.2758 0.75976-1.6565 1.0521-2.9689 1.036-4.0726-0.0499-3.3898-2.9199-4.8746-7.1271-4.256-3.168 0.46576-7.0942 2.1256-12.469 6.2276-4.5857-0.3397-9.6728-0.60683-15.281-0.78039 0.56023-2.855 0.41089-5.1703-0.28094-6.8569-1.0887-2.6538-3.5183-3.7521-6.2596-3.7898zm-0.28878 4.0765c0.0859-0.0052 0.16497 9.99e-4 0.23609 0.01953 0.84632 0.22077 0.6749 2.0991-1.3393 6.3769-2.0108-0.02822-4.0546-0.04875-6.1477-0.05463 3.989-4.3652 6.2006-6.2786 7.251-6.3415zm34.773 4.9398c0.11028 9.99e-4 0.17775 0.05547 0.20092 0.16681 0.12217 0.58635 0.30072 1.4664-0.58525 3.4434-1.223-0.15291-2.515-0.29822-3.8424-0.43994 2.1766-1.9345 3.7006-3.1746 4.2268-3.1703zm-51.253 12.105c3.0696 0.07418 6.1652 0.17708 9.2533 0.30923-4.791 7.7285-11.657 17.432-19.368 25.242-7.2165 7.3084-15.165 12.948-23.303 18.175 1.2146-1.6562 2.5051-3.4257 3.6552-4.9857 14.429-19.572 23.452-31.09 29.763-38.74zm18.643 0.79402c2.6632 0.15888 5.2807 0.33341 7.8333 0.52092-7.3294 7.4602-15.578 16.93-22.065 25.312-8.4502 10.919-13.896 19.968-20.444 28.572-0.51259 0.67356-1.0483 1.3485-1.5774 2.0222-0.79207 0.05655-1.6083 0.13076-2.4533 0.22826-6.4339 0.74238-14.352 2.7221-25.216 5.3701-0.78933 0.19238-1.675 0.40792-2.4924 0.60673 3.1817-4.3913 6.2721-8.6474 9.2308-12.705 7.6505-4.6377 15.639-9.7897 22.691-14.95 16.021-11.724 26.967-23.311 33.086-32.701 0.50589-0.77624 0.96613-1.5308 1.4066-2.2758zm16.251 1.2047c2.8023 0.251 5.472 0.51313 7.9402 0.78134-8.8677 10.433-26.032 28.005-39.166 39.548-6.6866 5.877-12.311 10.177-16.35 13.164 2.0559-2.6883 4.0815-5.3171 6.0303-7.7939 19.758-25.112 33.408-38.312 41.545-45.699zm14.316 1.5432c0.62496 0.08246 1.254 0.16552 1.8349 0.24777 8.2349 1.166 11.894 2.2858 14.177 2.8279-4.5792 2.6212-9.3452 5.6313-14.313 8.8622-12.175 7.9182-25.538 17.124-39.148 31.699-6.5572 7.0217-13.167 15.291-19.275 23.644-0.39726-0.0792-0.74393-0.14779-1.2896-0.2585-1.708-0.34654-4.1816-0.89081-8.2154-1.2125-1.7378-0.1386-3.7698-0.23214-5.8785-0.2663 1.0203-1.3781 2.04-2.7566 3.0464-4.1049 0.30067 0.01338 0.60243 0.02757 0.9023 0.04001 3.5879 0.14856 7.1016 0.19784 9.8486-0.32191 2.7467-0.51973 4.7271-1.6081 5.4939-2.8699 0.7668-1.2618 0.32114-2.6981-2.3753-3.6629-1.2656-0.45287-3.0447-0.79532-5.2237-0.96184 3.4366-2.0486 7.8323-4.9924 13.013-9.0135 13.538-10.507 32.175-28.158 42.915-39.665 1.6948-1.8159 3.17-3.4603 4.4882-4.9837zm85.371 9.5899c0.16432 0.02203 0.26391 0.09647 0.3629 0.17071-1.6827 2.7715-3.3654 5.5429-10.442 13.808-7.0772 8.2649-19.549 22.024-31.576 34.149-7.0452 7.1031-13.945 13.645-21.639 20.105 0.77575-1.0769 1.49-2.0743 2.2875-3.1791 10.146-14.056 22.024-30.336 32.343-41.671 10.32-11.334 19.077-17.717 23.655-20.761 3.434-2.2831 4.5152-2.6872 5.008-2.6211zm-178.58 40.846c-2.3522 3.49-4.6424 6.8744-6.9004 10.208-5.7921 1.4085-11.827 2.8854-17.461 4.3058 0.74612-0.77694 1.4975-1.5114 2.1724-2.1997 0.84441-0.43626 1.6946-0.87603 2.7216-1.4203 4.8709-2.5814 11.83-6.4029 19.468-10.894zm312.79 0.67505c-1.3757-0.01274-2.8285 0.39497-3.9605 1.3598-1.5093 1.2865-2.4503 3.5632-2.9206 4.7019-0.47023 1.1386-0.46968 1.1389-0.29657 1.8563 0.17316 0.71741 0.51903 2.1525 1.435 2.8952 0.91593 0.74278 2.401 0.79172 4.3067 0.42044 1.9056-0.3713 4.2309-1.1631 5.4929-2.6728 1.2621-1.5097 1.4598-3.7372 0.89066-5.3701-0.56917-1.6329-1.9052-2.6724-3.6122-3.0435-0.42673-0.09278-0.87688-0.14306-1.3354-0.1473zm-294.46 10.136c0.62016 2e-3 1.249 0.01903 1.8778 0.03706-1.1569 1.3957-2.2401 2.7049-3.5468 4.2853-1.3282 0.0402-2.6329 0.1078-3.861 0.21461-4.5533 0.39588-8.0676 1.2867-11.854 2.4251-3.7864 1.1384-7.8433 2.5239-12.298 4.1078-0.63594 0.22612-1.2602 0.45086-1.9051 0.68185 2.2199-3.0756 4.383-6.0648 6.5473-9.0565 0.30072-0.0462 0.60942-0.09787 0.90035-0.13754 4.3551-0.59384 7.6221-0.44527 10.765-0.8165 3.1425-0.37123 6.1622-1.2626 9.502-1.5842 1.2526-0.12061 2.5502-0.16127 3.8727-0.15705zm-27.793 3.1732c-2.269 3.341-4.4805 6.5897-6.5133 9.5519-2.8974 1.039-5.6488 2.0194-7.4762 2.6016-2.7964 0.89097-3.539 0.89017-4.1829-0.54629-0.64384-1.4364-1.1878-4.3048 0.19803-7.0762 0.0285-0.0571 0.0625-0.11375 0.0926-0.17071 1.7174-0.45008 3.4816-0.92048 5.1048-1.3384 4.8938-1.26 9.1369-2.3155 12.777-3.0221zm34.835 3.143c3.0891 0.0295 5.5414 0.30306 7.273 0.67115 1.1475 0.24387 1.9588 0.51933 2.6143 0.73065-6.0873 8.4292-11.626 16.863-16.026 24.113-9.057 14.922-13.313 24.82-15.095 32.962-1.7818 8.1415-1.0759 14.645 1.5657 18.273 2.6415 3.6278 7.244 4.6173 18.182-1.0252 10.938-5.6428 28.21-17.915 41.598-26.428 7.9582-5.0604 14.547-8.7978 21.631-13.347-2.2856 3.465-4.4583 6.8045-6.5612 10.03-7.3249 11.235-14.006 21.282-16.753 27.246-2.7468 5.9634-1.5594 7.8433 0.47018 8.1405 2.0296 0.29709 4.9004-0.9896 9.2817-4.7282 4.3813-3.7385 10.273-9.9275 13.219-13.023 2.946-3.095 2.9454-3.0952 5.3536-5.5993 2.4081-2.5041 7.2225-7.5107 11.35-11.783 4.1272-4.2723 7.5646-7.8079 9.7402-9.5774 2.1755-1.7694 3.0864-1.7693 3.261-0.66721 0.17466 1.1021-0.38537 3.3068-2.31 6.6312-1.9246 3.3245-5.2152 7.7699-7.0002 11.689-1.7847 3.9192-2.0641 7.3144-1.2242 10.762 0.83982 3.4472 2.7992 6.9453 5.6343 8.3977 2.8352 1.4526 6.5438 0.8587 10.831-0.78623 4.2872-1.6449 9.1499-4.3386 12.336-5.7916 1.2831-0.5851 2.2344-0.94615 3.0337-1.2516-1.4977 5.6767 1.1021 10.144 5.448 11.741 4.355 1.6006 10.46 0.31916 16.284-2.8952 5.8241-3.2144 11.367-8.3622 14.931-13.064 3.5632-4.7016 5.1468-8.9581 6.1367-12.323 0.98971-3.3652 1.3858-5.8405 1.2125-7.8693-0.0625-0.73159-0.20073-1.403-0.38337-2.0027 1.1654 0.0638 2.8648-0.042 4.8384-0.24875 2.5985-0.27224 5.6647-0.7173 7.5462-0.89061 1.8816-0.17329 2.5749-0.0741 1.9315 0.5443-0.64338 0.61841-2.6239 1.7566-4.1829 3.5381-1.5589 1.7814-2.6973 4.2068-6.805 10.566-4.1077 6.3595-11.185 16.654-21.059 30.115-4.1177 5.6143-8.7343 11.79-13.36 17.965-40.169-7.3034-74.747-11.819-104.77-13.68-35.45-2.1971-64.589-0.70862-90.44 2.7294 2.3357-3.1672 4.8257-6.5802 7.5132-10.305 15.49-21.468 37.198-52.717 56.822-79.327 1.6311-0.1422 3.1635-0.21149 4.5779-0.23022 0.46704-6e-3 0.92143-7e-3 1.3628-3e-3zm-11.09 0.90135c-0.47083 0.57401-0.90539 1.099-1.3978 1.7032-1.3492 1.0607-2.9386 2.3797-4.8755 4.0814-6.0553 5.3201-15.205 14.053-30.532 30.715-15.327 16.662-36.827 41.252-50.389 56.488-0.25717 0.28888-0.41374 0.46402-0.66526 0.74627-1.7676 0.35353-3.5135 0.71366-5.2342 1.0799 5.9399-7.9122 12.928-17.414 21.273-28.905 11.461-15.781 25.409-35.197 38.978-54.02 3.9041-1.4466 8.5161-3.6864 13.223-5.6852 5.419-2.3012 10.963-4.2809 16.011-5.4684 1.2349-0.29056 2.4393-0.53222 3.6103-0.73454zm-8.8662 11.048c-1.9906 2.5338-4.0793 5.2177-6.3974 8.2594-14.24 18.687-35.065 47.758-52.332 70.852-1.7345 0.26519-3.4579 0.53701-5.1653 0.81845-3.8209 0.6298-7.5706 1.3004-11.241 2.0007 8.8782-9.7188 19.325-20.01 29.305-30.711 15.826-16.97 30.467-34.963 40.136-45.376 2.1338-2.2978 4.013-4.209 5.6927-5.842zm-26.528 1.8885c-7.2585 10.419-13.668 19.203-25.53 35.059-10.243 13.691-24.512 32.6-36.236 47.706-3.939 0.87893-7.7424 1.7831-11.363 2.706 3.4876-5.2737 7.7919-11.365 13.119-18.351 15.107-19.808 38.295-46.658 53.091-60.863 2.5513-2.4489 4.8376-4.4987 6.9184-6.2576zm254.39 11.97c0.32978 0.015 0.59809 0.0971 0.79597 0.25168 0.79162 0.61841 0.4455 2.4-0.59405 5.6917-1.0396 3.292-2.7713 8.091-4.9242 12.744-2.153 4.6525-4.7264 9.1549-7.201 12.768-2.4747 3.6131-4.8493 6.3345-7.4478 8.0176-0.66851 0.433-1.3504 0.79602-2.0007 1.1121-0.43776-0.0376-0.87918-0.0743-1.2906-0.12193-4.7016-0.54435-7.5731-1.7321-9.6019-2.3753-2.0288-0.64318-3.2176-0.74267-4.0834-0.29752-0.86579 0.44516-1.4105 1.4356-1.8066 2.8708s-0.64314 3.3159 0.71796 4.7516c1.3611 1.4357 4.3302 2.4254 8.6859 2.6728 4.3555 0.24741 10.097-0.24819 16.036-1.7578 5.9394-1.5096 12.075-4.0331 16.802-6.1367 4.7269-2.1036 8.0421-3.7858 10.765-4.3302 1.9337-0.38662 3.5523-0.19934 4.8862-0.0761-1.5508 3.3107-2.7898 6.8824-3.2532 9.7517-0.64349 3.9844 0.19793 6.6072 2.2027 8.5376 2.0048 1.9304 5.1723 3.1676 7.7709 2.8952 2.5983-0.27243 4.6271-2.0547 6.9778-4.2072s5.0234-4.6776 7.6216-6.9044c2.598-2.2269 5.1228-4.1575 7.3249-5.0479 1.5785-0.63844 2.9936-0.74663 4.497-1.1374-0.22755 0.35754-0.4544 0.71426-0.66137 1.0633-2.1284 3.5883-3.1175 6.6566-3.1918 8.9831-0.0744 2.3264 0.76705 3.91 2.5987 4.6277 1.8316 0.71771 4.6517 0.56912 8.6105-0.27216 3.9589-0.84132 9.058-2.3765 12.72-3.9107 3.6622-1.5342 5.889-3.0684 7.1261-3.3654 1.2369-0.29703 1.4843 0.64398 1.5091 2.03 0.025 1.386-0.17246 3.2165 0.86719 4.974 0.0727 0.12278 0.15253 0.24428 0.23704 0.36581-1.2196 0.35256-1.8076 0.51848-3.1274 0.90036-24.748 7.1601-67.485 19.561-110.49 30.285-0.74243-0.1589-1.5024-0.32648-2.2417-0.48384-15.18-3.2313-29.65-6.1267-43.479-8.7044 6.8654-10.392 14.415-21.61 20.352-30.443 0.81105-1.2066 1.4622-2.1669 2.2153-3.2864 0.0524 6e-3 0.11492 8e-3 0.20782 8e-3 0.32194 0 0.96533 3.2e-4 2.3255-1.2116 1.3602-1.2119 3.4404-3.6395 7.5971-7.9942 4.1566-4.3545 10.394-10.641 15.986-15.318 5.5928-4.6769 10.542-7.7449 14.452-10.343 3.9096-2.5982 6.78-4.7275 9.1804-6.0638 1.8003-1.0021 3.3369-1.5581 4.3263-1.513zm-208.73 69.648c4.3506 0.0127 8.7314 0.0868 13.128 0.22826 33.629 1.0823 68.19 6.1048 106.4 13.459-4.2829 5.7147-8.4507 11.286-12.007 16.125-0.41928 0.57047-0.79207 1.0856-1.196 1.6378-37.145 6.9188-70.777 11.108-101.94 13.677-41.548 3.4262-78.693 3.9722-102.62 1.152-6.786-0.79992-12.507-1.8708-17.342-3.0952 3.9578-1.807 9.2138-5.87 14.836-11.191 5.9994-5.6777 12.409-12.774 22.446-25.823 22.002-3.6386 49.475-6.2546 78.288-6.1702zm-87.014 7.714c-13.969 18.216-24.413 30.463-28.817 32.085-5.1398 1.8931-2.0605-10.663 7.9852-24.916 0.71216-1.0104 1.4682-2.0319 2.2475-3.0591 5.5549-1.417 11.739-2.808 18.584-4.1097zm-23.447 5.3975c-4.7517 5.5514-7.5392 9.3592-9.4965 13.604-2.3582 5.1143-3.5325 10.881-2.7606 14.348-5.0219-1.739-8.7343-3.6248-11.53-5.413 2.1853-1.2348 5.2981-3.8827 9.8551-8.9541 2.8462-3.1673 6.2731-7.3059 10.427-12.587 1.1323-0.33236 2.302-0.66552 3.5049-0.9979zm236.95 1.9315c9.5739 1.8894 19.362 3.9095 29.205 6.0138-3.6907 0.86174-7.3644 1.7067-11.001 2.5207-9.3032 2.082-18.383 3.9836-27.273 5.7376 1.8266-2.9575 3.8503-6.1822 6.1876-9.8201 0.91449-1.4235 1.889-2.9251 2.8826-4.4521zm-245.31 0.55893c-0.42972 0.53161-0.87668 1.0884-1.2827 1.5861-11.956 14.653-13.341 14.158-10.519 7.5247 0.68789-1.6171 1.631-3.6059 2.8747-5.9649 2.5941-1.0128 5.5758-2.0703 8.9276-3.1459zm-17.474 7.0028c-0.61197 1.5034-1.1005 2.8517-1.5061 4.0639-0.70547 2.1083-1.1573 3.8029-1.3881 5.1603-3.5872-3.4586-3.2063-5.893 2.8942-9.2243z"/>
</svg>
